<svg xmlns="http://www.w3.org/2000/svg" viewBox="0 0 64 64">
  <defs>
    <radialGradient id="g" cx="50%" cy="60%" r="55%">
      <stop offset="0%" stop-color="#ffffff"/>
      <stop offset="40%" stop-color="#ffe28a"/>
      <stop offset="75%" stop-color="#ffb04a"/>
      <stop offset="100%" stop-color="#ef7a1f"/>
    </radialGradient>
  </defs>
  <!-- Iskry wokół maskotki -->
  <circle cx="10" cy="20" r="2" fill="#ffd06a"/>
  <circle cx="54" cy="20" r="2" fill="#ffd06a"/>
  <circle cx="8" cy="40" r="1.5" fill="#ffd06a"/>
  <circle cx="56" cy="40" r="1.5" fill="#ffd06a"/>
  <!-- Płomień (kropla) -->
  <path d="M32 4 C36 14 44 22 49 32 C55 42 57 51 55 58 C50 62 40 62 32 62 C24 62 14 62 9 58 C7 51 9 42 15 32 C20 22 28 14 32 4 Z"
        fill="url(#g)" stroke="#c2410c" stroke-width="0.8"/>
  <!-- Brwi -->
  <path d="M19 38 Q24 36 28 38" stroke="#2d2d33" stroke-width="1.6" stroke-linecap="round" fill="none"/>
  <path d="M36 38 Q41 36 45 38" stroke="#2d2d33" stroke-width="1.6" stroke-linecap="round" fill="none"/>
  <!-- Oczy: białko + źrenica + refleks -->
  <circle cx="24" cy="44" r="4" fill="#ffffff"/>
  <circle cx="40" cy="44" r="4" fill="#ffffff"/>
  <circle cx="24.5" cy="44" r="2.8" fill="#2d2d33"/>
  <circle cx="40.5" cy="44" r="2.8" fill="#2d2d33"/>
  <circle cx="23.5" cy="43" r="1" fill="#ffffff"/>
  <circle cx="39.5" cy="43" r="1" fill="#ffffff"/>
  <!-- Rumieńce -->
  <ellipse cx="17" cy="52" rx="3" ry="2" fill="#fda4af" opacity="0.55"/>
  <ellipse cx="47" cy="52" rx="3" ry="2" fill="#fda4af" opacity="0.55"/>
  <!-- Uśmiech -->
  <path d="M22 52 Q32 60 42 52" stroke="#2d2d33" stroke-width="2" stroke-linecap="round" fill="none"/>
</svg>
